<?xml version="1.0" encoding="UTF-8" standalone="no"?>
<svg
   xmlns:dc="http://purl.org/dc/elements/1.1/"
   xmlns:cc="http://creativecommons.org/ns#"
   xmlns:rdf="http://www.w3.org/1999/02/22-rdf-syntax-ns#"
   xmlns:svg="http://www.w3.org/2000/svg"
   xmlns="http://www.w3.org/2000/svg"
   viewBox="0 0 469.33334 165.33333"
   height="165.33333"
   width="469.33334"
   xml:space="preserve"
   id="svg2"
   version="1.1"><metadata
     id="metadata8"><rdf:RDF><cc:Work
         rdf:about=""><dc:format>image/svg+xml</dc:format><dc:type
           rdf:resource="http://purl.org/dc/dcmitype/StillImage" /></cc:Work></rdf:RDF></metadata><defs
     id="defs6" /><g
     transform="matrix(1.3333333,0,0,-1.3333333,0,165.33333)"
     id="g10"><g
       transform="scale(0.1)"
       id="g12"><path
         id="path14"
         style="fill:#e65c23;fill-opacity:1;fill-rule:evenodd;stroke:none"
         d="m 511.02,14.9609 c 40.07,-5.55074 88.902,-8.16012 146.48,-7.73043 57.578,0.35156 120.469,5.53903 188.789,15.42973 68.672,9.5703 139.57,25.4609 212.621,47.6484 73.04,21.8828 145.31,51.6404 216.75,89.3394 71.88,37.731 139.54,85 203.09,141.762 L 1348.36,444.961 C 1310.2,396.879 1264.57,352.422 1211.37,311.52 1158.55,270.621 1101.56,233.91 1040.43,201.332 979.301,168.832 916.949,141.211 853.441,118.551 789.879,96.332 728.551,79.8398 669.41,69.1406 610.23,58.0508 556.449,53.6719 508.012,56.0195 L 511.02,14.9609 M 0,417.539 C 57.6211,463.59 106.84,515 147.73,571.801 c 40.469,56.75 74.258,115.308 101.25,175.66 26.61,59.961 47.821,118.129 63.68,174.488 15.891,56.371 27.57,107.001 35.192,151.841 7.539,44.92 12.269,80.66 14.257,107.23 2.379,26.6 3.36,40.07 2.969,40.5 L 992.191,1240 c 18.669,-41.33 26.599,-89.34 23.829,-144.14 -2.39,-55.2 -13.09,-113.95 -32.149,-176.29 C 964.77,857.23 939.801,793.91 908.828,729.609 877.852,665.309 843.281,603.121 805.199,543.199 767.461,483.238 728.359,428.441 687.852,378.828 647.809,329.18 608.871,287.699 571.172,254.379 c -38.16,-33.789 -72.5,-56.41 -103.051,-67.93 L 480.621,14.9609 25.6211,306.762 0,417.539" /><path
         id="path16"
         style="fill:#faae17;fill-opacity:1;fill-rule:evenodd;stroke:none"
         d="m 506.211,77.4609 c 48.051,-0.7812 102.66,5.5508 163.789,19.0977 61.172,13.4804 125.27,34.9214 192.379,64.3004 66.68,28.981 132.973,66.481 198.911,112.539 65.9,45.704 127.62,100.274 185.19,163.793 57.19,63.118 107.04,135.821 149.5,217.969 L 1244.14,796.328 C 1213.95,706.211 1175.04,622.422 1127.38,545 1079.34,467.969 1023.55,399.262 960.039,338.91 896.52,278.551 826.449,228.75 749.84,189.41 673.199,150.512 591.211,124.34 503.828,110.82 l 2.383,-33.3591" /><path
         id="path18"
         style="fill:#00b3e6;fill-opacity:1;fill-rule:evenodd;stroke:none"
         d="m 502.699,134.648 c 50.352,5.551 104.211,21.832 161.321,48.832 57.191,27.032 114.57,64.329 172.152,111.989 57.93,47.23 113.168,105 165.548,173.32 52.81,67.852 100.27,145.66 142.34,233.402 42.11,88.161 76.02,186.008 101.84,293.629 l -160.78,129.8 c 2.77,-49.64 -2.82,-104.21 -16.68,-163.741 -13.91,-60 -34.38,-121.918 -61.37,-185.859 C 979.691,712.539 947.34,649.609 910,587.27 872.301,524.922 831.211,466.172 786.719,410.98 741.879,356.172 695.199,307.73 646.762,265.66 598.32,223.98 549.301,191.602 499.691,168.59 l 3.008,-33.942" /><path
         id="path20"
         style="fill:#faae17;fill-opacity:1;fill-rule:evenodd;stroke:none"
         d="M 1244.14,796.328 1395.98,655.16 c -9.53,-18.281 -19.5,-36.14 -29.77,-53.601 -77.85,-29.758 -160.78,-53.59 -248.94,-71.481 52.42,81.402 94.64,170.152 126.87,266.25" /><path
         id="path22"
         style="fill:#42c7f5;fill-opacity:1;fill-rule:evenodd;stroke:none"
         d="m 1036.25,515.82 c 45.27,64.301 85.78,136.559 121.52,216.758 36.1,79.801 65.51,167.543 88.13,263.242 l -161.41,129.8 c 2.39,-43.24 -1.56,-90.54 -11.91,-141.71 -9.92,-51.211 -25.39,-104.461 -46.45,-159.609 C 1005.12,769.102 979.691,713.91 949.879,658.75 920.551,603.121 887.77,549.531 851.641,497.93 c 63.129,2.808 124.687,8.75 184.609,17.89" /><path
         id="path24"
         style="fill:#87c23f;fill-opacity:1;fill-rule:evenodd;stroke:none"
         d="m 365.699,1221.52 c 0,-0.43 -1.008,-13.12 -2.969,-38.08 -1.992,-24.61 -6.359,-58.21 -13.121,-100.71 -7.187,-42.46 -17.89,-90.308 -32.148,-143.468 C 303.16,885.66 283.91,829.879 259.648,771.879 235.469,713.91 204.922,656.91 167.969,600.941 c 87.73,-33.711 182.07,-59.73 282.89,-78.011 100.821,-17.852 206.051,-26.989 315.621,-27.34 2.782,0 5.36,0 7.739,0 41.679,61.91 80.191,126.832 115.551,194.68 34.96,68.32 63.71,136.21 86.359,203.71 22.191,67.469 35.511,131.02 39.891,190.59 3.98,59.53 -3.79,111.33 -23.25,155.43 l -627.071,-18.48" /><path
         id="path26"
         style="fill:#88c240;fill-opacity:1;fill-rule:nonzero;stroke:none"
         d="m 1664.8,650.512 c 23.32,0 43.95,-4.063 61.88,-12.192 17.89,-8.05 33.01,-19.019 45.31,-32.968 12.27,-13.872 21.56,-29.961 27.81,-48.282 6.25,-18.242 9.38,-37.34 9.38,-57.34 0,-19.808 -3.09,-38.91 -9.22,-57.351 -6.05,-18.359 -15.31,-34.649 -27.81,-48.899 -12.42,-14.179 -27.81,-25.55 -46.25,-34.07 -18.36,-8.43 -39.77,-12.648 -64.22,-12.648 -23.98,0 -44.8,4.019 -62.5,12.027 -17.62,8.121 -32.27,19.063 -43.91,32.813 -11.68,13.75 -20.43,29.609 -26.25,47.66 -5.86,18.117 -8.75,37.218 -8.75,57.34 0,21.25 3.17,41.168 9.53,59.847 6.45,18.75 15.82,35.031 28.13,48.903 12.27,13.949 27.38,24.918 45.31,32.968 17.89,8.129 38.44,12.192 61.56,12.192 z m -2.34,-274.223 c 19.45,0 36.13,3.121 50,9.371 13.95,6.328 25.31,15.039 34.06,26.102 8.83,11.008 15.36,23.937 19.53,38.75 4.26,14.879 6.41,30.816 6.41,47.808 0,18.2 -2.19,34.84 -6.56,49.84 -4.3,15 -10.86,27.86 -19.69,38.602 -8.87,10.699 -20.16,19.058 -33.91,25 -13.75,6.008 -30.07,9.058 -48.9,9.058 -19.18,0 -35.47,-2.929 -48.91,-8.75 -13.44,-5.859 -24.37,-14.058 -32.81,-24.691 -8.36,-10.617 -14.49,-23.277 -18.44,-37.969 -3.86,-14.609 -5.78,-30.699 -5.78,-48.281 0,-41.359 8.95,-72.5 26.88,-93.43 18,-20.937 44.06,-31.41 78.12,-31.41 z m 237.38,-24.219 h -31.3984 v 332.031 h 31.3984 z" /><path
         id="path28"
         style="fill:#88c240;fill-opacity:1;fill-rule:nonzero;stroke:none"
         d="m 2004.1,352.07 h -31.4023 V 558.48 H 2004.1 Z m -38.12,281.879 c 0,5.93 2.11,11.281 6.4,16.09 4.38,4.762 9.73,7.191 16.1,7.191 5.93,0 11.29,-2.429 16.09,-7.191 4.77,-4.809 7.19,-10.16 7.19,-16.09 0,-6.371 -2.42,-11.719 -7.19,-16.097 -4.8,-4.301 -10.16,-6.403 -16.09,-6.403 -6.37,0 -11.72,2.102 -16.1,6.403 -4.29,4.378 -6.4,9.726 -6.4,16.097 z" /><path
         id="path30"
         style="fill:#88c240;fill-opacity:1;fill-rule:nonzero;stroke:none"
         d="m 2176.21,352.07 h -40 l -93.75,206.41 h 34.06 l 80.32,-176.718 80.46,176.718 h 32.66 z" /><path
         id="path32"
         style="fill:#88c240;fill-opacity:1;fill-rule:nonzero;stroke:none"
         d="m 2398.2,565.199 c 26.25,0 46.57,-6.679 60.94,-20 14.38,-13.25 21.56,-32 21.56,-56.25 0,-5.121 -0.31,-10.277 -0.93,-15.469 -0.55,-5.242 -1.57,-9.031 -3.13,-11.41 h -151.25 v -4.531 c 0,-11.367 1.49,-22.309 4.53,-32.809 3.01,-10.429 7.5,-19.691 13.44,-27.82 6.02,-8.039 13.59,-14.449 22.66,-19.211 9.14,-4.808 20.03,-7.187 32.65,-7.187 7.07,0 14.06,0.777 20.94,2.34 6.95,1.636 13.59,3.75 19.84,6.25 6.25,2.578 12.07,5.386 17.5,8.437 5.39,3.012 10.2,5.981 14.38,8.91 l 5.31,-25.469 c -3.87,-2.429 -8.67,-5.082 -14.37,-7.968 -5.63,-2.813 -11.88,-5.434 -18.75,-7.813 -6.88,-2.429 -14.46,-4.379 -22.66,-5.937 -8.24,-1.641 -16.84,-2.5 -25.78,-2.5 -16.8,0 -31.64,2.929 -44.53,8.75 -12.82,5.816 -23.6,13.75 -32.35,23.75 -8.67,10 -15.23,21.558 -19.68,34.687 -4.5,13.199 -6.72,27.031 -6.72,41.403 0,14.57 2.26,28.519 6.87,41.878 4.69,13.321 11.49,25.04 20.47,35.149 8.95,10.199 20.08,18.211 33.44,24.07 13.32,5.821 28.51,8.75 45.62,8.75 z m -1.4,-25.16 c -19.81,0 -35.16,-5.16 -46.1,-15.469 -10.86,-10.308 -18.24,-23.242 -22.18,-38.75 h 122.65 c 0.2,1.45 0.31,2.731 0.31,3.91 0,1.25 0,2.649 0,4.219 0,7.379 -1.52,13.981 -4.53,19.84 -2.93,5.82 -6.95,10.66 -12.03,14.531 -5.12,3.95 -10.94,6.879 -17.5,8.75 -6.56,1.95 -13.44,2.969 -20.62,2.969 z" /><path
         id="path34"
         style="fill:#88c240;fill-opacity:1;fill-rule:nonzero;stroke:none"
         d="m 2542.93,648.32 h 2.34 c 14.38,0.508 29.89,0.981 46.57,1.41 16.75,0.5 33.04,0.782 48.9,0.782 21.25,0 40.63,-3.051 58.13,-9.063 17.5,-5.937 32.38,-14.179 44.68,-24.687 15.83,-14.301 27.35,-31.801 34.54,-52.5 7.18,-20.633 10.78,-43.051 10.78,-67.192 0,-20.429 -2.89,-39.691 -8.6,-57.808 -5.62,-18.051 -14.37,-33.91 -26.25,-47.66 -11.79,-13.75 -26.64,-24.692 -44.53,-32.813 -17.93,-8.008 -39.18,-12.027 -63.75,-12.027 -21.25,0 -40.31,0.539 -57.19,1.558 -16.87,1.059 -32.1,2.301 -45.62,3.75 z m 100.62,-27.5 c -11.99,0 -23.75,-0.121 -35.31,-0.308 -11.48,-0.121 -21.99,-0.434 -31.56,-0.942 V 378.949 c 18.83,-1.801 41.41,-2.66 67.66,-2.66 35.62,0 62.38,10.473 80.31,31.41 18.01,20.93 27.03,51.91 27.03,92.961 0,17.891 -1.88,34.262 -5.63,49.07 -3.75,14.758 -9.92,27.379 -18.43,37.809 -8.56,10.512 -19.69,18.672 -33.44,24.531 -13.75,5.821 -30.63,8.75 -50.63,8.75 z" /><path
         id="path36"
         style="fill:#88c240;fill-opacity:1;fill-rule:nonzero;stroke:none"
         d="m 2956.8,525.352 c -4.81,2.578 -9.61,4.726 -14.38,6.41 -4.8,1.636 -9.45,2.5 -13.9,2.5 -5.94,0 -11.64,-1.684 -17.04,-5 -5.31,-3.242 -10.27,-7.742 -14.84,-13.442 -4.49,-5.621 -8.44,-12.191 -11.87,-19.691 -3.44,-7.5 -6.06,-15.27 -7.82,-23.277 V 352.07 h -31.4 v 206.41 h 24.68 l 3.6,-45.32 h 1.72 c 2.18,6.879 5,13.442 8.43,19.692 3.44,6.328 7.58,11.918 12.5,16.718 4.89,4.77 10.47,8.59 16.72,11.41 6.33,2.809 13.6,4.219 21.72,4.219 5.63,0 11.56,-1.019 17.81,-2.969 6.33,-1.878 10.86,-4.339 13.6,-7.351 z" /><path
         id="path38"
         style="fill:#88c240;fill-opacity:1;fill-rule:nonzero;stroke:none"
         d="m 3037.3,352.07 h -31.4023 V 558.48 H 3037.3 Z m -38.12,281.879 c 0,5.93 2.11,11.281 6.41,16.09 4.37,4.762 9.72,7.191 16.09,7.191 5.94,0 11.29,-2.429 16.09,-7.191 4.77,-4.809 7.19,-10.16 7.19,-16.09 0,-6.371 -2.42,-11.719 -7.19,-16.097 -4.8,-4.301 -10.15,-6.403 -16.09,-6.403 -6.37,0 -11.72,2.102 -16.09,6.403 -4.3,4.378 -6.41,9.726 -6.41,16.097 z" /><path
         id="path40"
         style="fill:#88c240;fill-opacity:1;fill-rule:nonzero;stroke:none"
         d="m 3209.45,352.07 h -40 l -93.75,206.41 h 34.07 l 80.31,-176.718 80.47,176.718 h 32.65 z" /><path
         id="path42"
         style="fill:#88c240;fill-opacity:1;fill-rule:nonzero;stroke:none"
         d="m 3431.45,565.199 c 26.25,0 46.56,-6.679 60.93,-20 14.38,-13.25 21.57,-32 21.57,-56.25 0,-5.121 -0.32,-10.277 -0.94,-15.469 -0.55,-5.242 -1.56,-9.031 -3.13,-11.41 h -151.25 v -4.531 c 0,-11.367 1.49,-22.309 4.53,-32.809 3.01,-10.429 7.5,-19.691 13.44,-27.82 6.02,-8.039 13.6,-14.449 22.66,-19.211 9.14,-4.808 20.04,-7.187 32.65,-7.187 7.07,0 14.07,0.777 20.94,2.34 6.95,1.636 13.6,3.75 19.85,6.25 6.25,2.578 12.07,5.386 17.5,8.437 5.39,3.012 10.19,5.981 14.37,8.91 l 5.31,-25.469 c -3.86,-2.429 -8.67,-5.082 -14.37,-7.968 -5.63,-2.813 -11.88,-5.434 -18.75,-7.813 -6.88,-2.429 -14.46,-4.379 -22.66,-5.937 -8.24,-1.641 -16.83,-2.5 -25.78,-2.5 -16.8,0 -31.64,2.929 -44.53,8.75 -12.81,5.816 -23.59,13.75 -32.34,23.75 -8.68,10 -15.24,21.558 -19.69,34.687 -4.49,13.199 -6.72,27.031 -6.72,41.403 0,14.57 2.26,28.519 6.87,41.878 4.69,13.321 11.49,25.04 20.47,35.149 8.95,10.199 20.08,18.211 33.44,24.07 13.32,5.821 28.52,8.75 45.63,8.75 z m -1.41,-25.16 c -19.81,0 -35.16,-5.16 -46.09,-15.469 -10.86,-10.308 -18.25,-23.242 -22.19,-38.75 h 122.65 c 0.2,1.45 0.32,2.731 0.32,3.91 0,1.25 0,2.649 0,4.219 0,7.379 -1.53,13.981 -4.53,19.84 -2.93,5.82 -6.96,10.66 -12.04,14.531 -5.11,3.95 -10.93,6.879 -17.5,8.75 -6.56,1.95 -13.43,2.969 -20.62,2.969 z" /></g></g></svg>