<?xml version="1.0" encoding="UTF-8" standalone="no"?>
<svg
   xmlns:dc="http://purl.org/dc/elements/1.1/"
   xmlns:cc="http://creativecommons.org/ns#"
   xmlns:rdf="http://www.w3.org/1999/02/22-rdf-syntax-ns#"
   xmlns:svg="http://www.w3.org/2000/svg"
   xmlns="http://www.w3.org/2000/svg"
   xmlns:sodipodi="http://sodipodi.sourceforge.net/DTD/sodipodi-0.dtd"
   xmlns:inkscape="http://www.inkscape.org/namespaces/inkscape"
   inkscape:version="1.0 (4035a4fb49, 2020-05-01)"
   sodipodi:docname="installer-background.svg"
   id="svg4"
   viewBox="0 0 35 0"
   x="0px"
   y="0px"
   enable-background="new 0 0 595.275 311.111"
   width="320"
   height="200"
   xml:space="preserve"
   version="1.1"><metadata
     id="metadata10"><rdf:RDF><cc:Work
         rdf:about=""><dc:format>image/svg+xml</dc:format><dc:type
           rdf:resource="http://purl.org/dc/dcmitype/StillImage" /></cc:Work></rdf:RDF></metadata><defs
     id="defs8"><filter
       style="color-interpolation-filters:sRGB"
       inkscape:label="Colorize"
       id="filter1010"><feComposite
         k4="0"
         k3="0"
         in2="SourceGraphic"
         operator="arithmetic"
         k1="0"
         k2="0"
         result="composite1"
         id="feComposite996" /><feColorMatrix
         in="composite1"
         values="1"
         type="saturate"
         result="colormatrix1"
         id="feColorMatrix998" /><feFlood
         flood-opacity="1"
         flood-color="rgb(0,0,0)"
         result="flood1"
         id="feFlood1000" /><feBlend
         in="flood1"
         in2="colormatrix1"
         mode="normal"
         result="blend1"
         id="feBlend1002" /><feBlend
         in2="blend1"
         mode="normal"
         result="blend2"
         id="feBlend1004" /><feColorMatrix
         in="blend2"
         values="1"
         type="saturate"
         result="colormatrix2"
         id="feColorMatrix1006" /><feComposite
         in="colormatrix2"
         in2="SourceGraphic"
         operator="in"
         result="fbSourceGraphic"
         id="feComposite1008" /><feColorMatrix
         result="fbSourceGraphicAlpha"
         in="fbSourceGraphic"
         values="0 0 0 -1 0 0 0 0 -1 0 0 0 0 -1 0 0 0 0 1 0"
         id="feColorMatrix1012" /><feComposite
         k4="0"
         k3="0"
         in2="fbSourceGraphic"
         id="feComposite1014"
         operator="arithmetic"
         k1="0"
         k2="0"
         result="composite1"
         in="fbSourceGraphic" /><feColorMatrix
         id="feColorMatrix1016"
         in="composite1"
         values="1"
         type="saturate"
         result="colormatrix1" /><feFlood
         id="feFlood1018"
         flood-opacity="1"
         flood-color="rgb(255,255,255)"
         result="flood1" /><feBlend
         in2="colormatrix1"
         id="feBlend1020"
         in="flood1"
         mode="normal"
         result="blend1" /><feBlend
         in2="blend1"
         id="feBlend1022"
         mode="normal"
         result="blend2" /><feColorMatrix
         id="feColorMatrix1024"
         in="blend2"
         values="1"
         type="saturate"
         result="colormatrix2" /><feComposite
         in2="fbSourceGraphic"
         id="feComposite1026"
         in="colormatrix2"
         operator="in"
         result="composite2" /></filter></defs><sodipodi:namedview
     inkscape:current-layer="svg4"
     inkscape:window-maximized="1"
     inkscape:window-y="-8"
     inkscape:window-x="-8"
     inkscape:cy="100"
     inkscape:cx="160"
     inkscape:zoom="3.278125"
     showgrid="false"
     id="namedview6"
     inkscape:window-height="1017"
     inkscape:window-width="1920"
     inkscape:pageshadow="2"
     inkscape:pageopacity="0"
     guidetolerance="10"
     gridtolerance="10"
     objecttolerance="10"
     borderopacity="1"
     bordercolor="#666666"
     pagecolor="#ffffff" /><path
     id="path12"
     d="M 94.413727,229.94294 C 76.116783,228.74753 58.685822,221.99343 44.080076,210.4398 40.0284,207.23479 32.767009,199.95631 29.461128,195.78646 22.368854,186.84067 16.468545,175.63418 13.386521,165.25588 l -0.475522,-1.60125 -1.48447,2.81043 c -7.8384627,14.8399 -21.715722,25.89462 -37.606123,29.95729 -4.668995,1.19372 -7.369905,1.55284 -12.867117,1.71085 -10.364254,0.29791 -19.079175,-1.58316 -27.998286,-6.04329 -5.84492,-2.92283 -10.035978,-5.8875 -14.796378,-10.46666 -5.302092,-5.10023 -9.09322,-10.28141 -12.292462,-16.79961 -12.914223,-26.31168 -4.370568,-58.28241 20.006096,-74.863654 6.812492,-4.633923 13.639346,-7.53769 21.506197,-9.147546 25.762407,-5.271971 51.5312561,7.111196 64.221263,30.8614 0.78163,1.46287 1.392238,2.30806 1.477235,2.04476 0.07969,-0.24685 0.515691,-1.61564 0.968898,-3.04176 1.158852,-3.64659 3.167134,-8.50958 5.118512,-12.394316 C 32.627609,71.480339 57.67547,53.207752 87.092469,48.728508 93.022423,47.825571 103.444,47.612015 109.60037,48.267283 c 28.30679,3.012897 53.05366,18.761299 68.17127,43.382801 3.26292,5.314211 7.89898,15.500566 9.07604,19.941906 0.2001,0.75501 0.4346,1.48858 0.52112,1.63015 0.0865,0.14158 0.69618,-0.73568 1.35479,-1.94947 7.42324,-13.680556 19.43278,-23.893412 33.66915,-28.632072 14.74504,-4.907982 30.82707,-3.760567 44.6371,3.18475 17.78065,8.942201 29.81238,25.584562 32.51731,44.978062 0.61334,4.39736 0.61108,12.25161 -0.005,16.44057 -1.90252,12.94239 -7.61798,24.31735 -16.89389,33.62254 -8.59025,8.61733 -19.7519,14.4515 -31.74293,16.59193 -3.89836,0.69587 -12.43864,0.94576 -16.48345,0.48231 -19.29426,-2.21071 -36.32869,-13.85965 -45.57633,-31.16723 l -1.30623,-2.4447 -1.24259,3.62413 c -4.67348,13.63026 -12.13845,25.61565 -22.18087,35.61234 -4.80319,4.78131 -8.51225,7.81794 -14.10135,11.54482 -16.29536,10.86597 -35.97239,16.11524 -55.601203,14.83282 z m 10.852643,-35.09183 c 22.71758,-2.21739 41.28871,-16.94342 48.30198,-38.3012 1.88114,-5.72873 2.51013,-9.46587 2.68921,-15.97794 0.17024,-6.19086 -0.23414,-10.14973 -1.58913,-15.55767 -5.09862,-20.34913 -21.58926,-36.343715 -42.10408,-40.837553 -7.22733,-1.58317 -16.653642,-1.673349 -23.510241,-0.224921 -19.790841,4.180741 -35.581487,18.117694 -41.879145,36.962874 -3.981697,11.91488 -3.986751,24.02709 -0.01501,35.97758 6.297798,18.94931 22.268489,33.02901 42.033915,37.05695 5.648193,1.15102 10.646452,1.43149 16.072501,0.90188 z M -33.86082,162.23215 c 7.897518,-2.52244 13.373154,-7.82722 16.077322,-15.57566 0.979532,-2.80673 1.005202,-3.00805 0.989678,-7.76231 -0.01458,-4.46789 -0.08542,-5.08731 -0.837274,-7.32125 -2.421875,-7.19605 -8.031707,-13.02579 -14.859439,-15.44193 -6.146505,-2.17507 -12.695358,-1.8859 -18.557026,0.81941 -7.320203,3.37846 -12.250052,9.82981 -13.652219,17.86571 -2.199581,12.60592 5.60597,24.54967 18.120526,27.72733 3.28299,0.8336 9.619441,0.67851 12.718432,-0.3113 z m 282.32602,-0.26963 c 10.24062,-3.4918 16.46384,-12.21824 16.4707,-23.0958 0.008,-12.15056 -8.42167,-21.97605 -20.52899,-23.92917 -2.7933,-0.4506 -6.8573,-0.25667 -9.68636,0.46223 -4.68021,1.1893 -9.76674,4.43576 -12.77493,8.15353 -9.94367,12.28922 -5.619,30.99859 8.66215,37.47396 3.61387,1.63861 6.20034,2.11949 10.84123,2.01559 3.70755,-0.083 4.40721,-0.19072 7.0162,-1.08034 z"
     style="fill:#f2f2f2;fill-opacity:0;stroke-width:0.305052" /><path
     id="path14"
     d="M 94.413727,229.94294 C 76.116783,228.74753 58.685822,221.99343 44.080076,210.4398 40.0284,207.23479 32.767009,199.95631 29.461128,195.78646 22.368854,186.84067 16.468545,175.63418 13.386521,165.25588 l -0.475522,-1.60125 -1.48447,2.81043 c -7.8384627,14.8399 -21.715722,25.89462 -37.606123,29.95729 -4.668995,1.19372 -7.369905,1.55284 -12.867117,1.71085 -10.364254,0.29791 -19.079175,-1.58316 -27.998286,-6.04329 -5.84492,-2.92283 -10.035978,-5.8875 -14.796378,-10.46666 -5.302092,-5.10023 -9.09322,-10.28141 -12.292462,-16.79961 -12.914223,-26.31168 -4.370568,-58.28241 20.006096,-74.863654 6.812492,-4.633923 13.639346,-7.53769 21.506197,-9.147546 25.762407,-5.271971 51.5312561,7.111196 64.221263,30.8614 0.78163,1.46287 1.392238,2.30806 1.477235,2.04476 0.07969,-0.24685 0.515691,-1.61564 0.968898,-3.04176 1.158852,-3.64659 3.167134,-8.50958 5.118512,-12.394316 C 32.627609,71.480339 57.67547,53.207752 87.092469,48.728508 93.022423,47.825571 103.444,47.612015 109.60037,48.267283 c 28.30679,3.012897 53.05366,18.761299 68.17127,43.382801 3.26292,5.314211 7.89898,15.500566 9.07604,19.941906 0.2001,0.75501 0.4346,1.48858 0.52112,1.63015 0.0865,0.14158 0.69618,-0.73568 1.35479,-1.94947 7.42324,-13.680556 19.43278,-23.893412 33.66915,-28.632072 14.74504,-4.907982 30.82707,-3.760567 44.6371,3.18475 17.78065,8.942201 29.81238,25.584562 32.51731,44.978062 0.61334,4.39736 0.61108,12.25161 -0.005,16.44057 -1.90252,12.94239 -7.61798,24.31735 -16.89389,33.62254 -8.59025,8.61733 -19.7519,14.4515 -31.74293,16.59193 -3.89836,0.69587 -12.43864,0.94576 -16.48345,0.48231 -19.29426,-2.21071 -36.32869,-13.85965 -45.57633,-31.16723 l -1.30623,-2.4447 -1.24259,3.62413 c -4.67348,13.63026 -12.13845,25.61565 -22.18087,35.61234 -4.80319,4.78131 -8.51225,7.81794 -14.10135,11.54482 -16.29536,10.86597 -35.97239,16.11524 -55.601203,14.83282 z m 10.852643,-35.09183 c 22.71758,-2.21739 41.28871,-16.94342 48.30198,-38.3012 1.88114,-5.72873 2.51013,-9.46587 2.68921,-15.97794 0.17024,-6.19086 -0.23414,-10.14973 -1.58913,-15.55767 -5.09862,-20.34913 -21.58926,-36.343715 -42.10408,-40.837553 -7.22733,-1.58317 -16.653642,-1.673349 -23.510241,-0.224921 -19.790841,4.180741 -35.581487,18.117694 -41.879145,36.962874 -3.981697,11.91488 -3.986751,24.02709 -0.01501,35.97758 6.297798,18.94931 22.268489,33.02901 42.033915,37.05695 5.648193,1.15102 10.646452,1.43149 16.072501,0.90188 z M -33.86082,162.23215 c 7.897518,-2.52244 13.373154,-7.82722 16.077322,-15.57566 0.979532,-2.80673 1.005202,-3.00805 0.989678,-7.76231 -0.01458,-4.46789 -0.08542,-5.08731 -0.837274,-7.32125 -2.421875,-7.19605 -8.031707,-13.02579 -14.859439,-15.44193 -6.146505,-2.17507 -12.695358,-1.8859 -18.557026,0.81941 -7.320203,3.37846 -12.250052,9.82981 -13.652219,17.86571 -2.199581,12.60592 5.60597,24.54967 18.120526,27.72733 3.28299,0.8336 9.619441,0.67851 12.718432,-0.3113 z m 282.32602,-0.26963 c 10.24062,-3.4918 16.46384,-12.21824 16.4707,-23.0958 0.008,-12.15056 -8.42167,-21.97605 -20.52899,-23.92917 -2.7933,-0.4506 -6.8573,-0.25667 -9.68636,0.46223 -4.68021,1.1893 -9.76674,4.43576 -12.77493,8.15353 -9.94367,12.28922 -5.619,30.99859 8.66215,37.47396 3.61387,1.63861 6.20034,2.11949 10.84123,2.01559 3.70755,-0.083 4.40721,-0.19072 7.0162,-1.08034 z"
     style="fill:#f2f2f2;fill-opacity:0;stroke-width:0.305052" /><path
     id="path16"
     d="M 94.413727,229.94294 C 76.116783,228.74753 58.685822,221.99343 44.080076,210.4398 40.0284,207.23479 32.767009,199.95631 29.461128,195.78646 22.368854,186.84067 16.468545,175.63418 13.386521,165.25588 l -0.475522,-1.60125 -1.48447,2.81043 c -7.8384627,14.8399 -21.715722,25.89462 -37.606123,29.95729 -4.668995,1.19372 -7.369905,1.55284 -12.867117,1.71085 -10.364254,0.29791 -19.079175,-1.58316 -27.998286,-6.04329 -5.84492,-2.92283 -10.035978,-5.8875 -14.796378,-10.46666 -5.302092,-5.10023 -9.09322,-10.28141 -12.292462,-16.79961 -12.914223,-26.31168 -4.370568,-58.28241 20.006096,-74.863654 6.812492,-4.633923 13.639346,-7.53769 21.506197,-9.147546 25.762407,-5.271971 51.5312561,7.111196 64.221263,30.8614 0.78163,1.46287 1.392238,2.30806 1.477235,2.04476 0.07969,-0.24685 0.515691,-1.61564 0.968898,-3.04176 1.158852,-3.64659 3.167134,-8.50958 5.118512,-12.394316 C 32.627609,71.480339 57.67547,53.207752 87.092469,48.728508 93.022423,47.825571 103.444,47.612015 109.60037,48.267283 c 28.30679,3.012897 53.05366,18.761299 68.17127,43.382801 3.26292,5.314211 7.89898,15.500566 9.07604,19.941906 0.2001,0.75501 0.4346,1.48858 0.52112,1.63015 0.0865,0.14158 0.69618,-0.73568 1.35479,-1.94947 7.42324,-13.680556 19.43278,-23.893412 33.66915,-28.632072 14.74504,-4.907982 30.82707,-3.760567 44.6371,3.18475 17.78065,8.942201 29.81238,25.584562 32.51731,44.978062 0.61334,4.39736 0.61108,12.25161 -0.005,16.44057 -1.90252,12.94239 -7.61798,24.31735 -16.89389,33.62254 -8.59025,8.61733 -19.7519,14.4515 -31.74293,16.59193 -3.89836,0.69587 -12.43864,0.94576 -16.48345,0.48231 -19.29426,-2.21071 -36.32869,-13.85965 -45.57633,-31.16723 l -1.30623,-2.4447 -1.24259,3.62413 c -4.67348,13.63026 -12.13845,25.61565 -22.18087,35.61234 -4.80319,4.78131 -8.51225,7.81794 -14.10135,11.54482 -16.29536,10.86597 -35.97239,16.11524 -55.601203,14.83282 z m 10.852643,-35.09183 c 22.71758,-2.21739 41.28871,-16.94342 48.30198,-38.3012 1.88114,-5.72873 2.51013,-9.46587 2.68921,-15.97794 0.17024,-6.19086 -0.23414,-10.14973 -1.58913,-15.55767 -5.09862,-20.34913 -21.58926,-36.343715 -42.10408,-40.837553 -7.22733,-1.58317 -16.653642,-1.673349 -23.510241,-0.224921 -19.790841,4.180741 -35.581487,18.117694 -41.879145,36.962874 -3.981697,11.91488 -3.986751,24.02709 -0.01501,35.97758 6.297798,18.94931 22.268489,33.02901 42.033915,37.05695 5.648193,1.15102 10.646452,1.43149 16.072501,0.90188 z M -33.86082,162.23215 c 7.897518,-2.52244 13.373154,-7.82722 16.077322,-15.57566 0.979532,-2.80673 1.005202,-3.00805 0.989678,-7.76231 -0.01458,-4.46789 -0.08542,-5.08731 -0.837274,-7.32125 -2.421875,-7.19605 -8.031707,-13.02579 -14.859439,-15.44193 -6.146505,-2.17507 -12.695358,-1.8859 -18.557026,0.81941 -7.320203,3.37846 -12.250052,9.82981 -13.652219,17.86571 -2.199581,12.60592 5.60597,24.54967 18.120526,27.72733 3.28299,0.8336 9.619441,0.67851 12.718432,-0.3113 z m 282.32602,-0.26963 c 10.24062,-3.4918 16.46384,-12.21824 16.4707,-23.0958 0.008,-12.15056 -8.42167,-21.97605 -20.52899,-23.92917 -2.7933,-0.4506 -6.8573,-0.25667 -9.68636,0.46223 -4.68021,1.1893 -9.76674,4.43576 -12.77493,8.15353 -9.94367,12.28922 -5.619,30.99859 8.66215,37.47396 3.61387,1.63861 6.20034,2.11949 10.84123,2.01559 3.70755,-0.083 4.40721,-0.19072 7.0162,-1.08034 z"
     style="fill:#f2f2f2;fill-opacity:0;stroke-width:0.305052" /><path
     id="path18"
     d="m 94.953139,194.83699 c -22.026651,-2.12452 -40.857014,-17.07462 -47.793185,-37.94471 -3.971741,-11.95049 -3.966687,-24.0627 0.01501,-35.97758 6.297658,-18.84518 22.088304,-32.782135 41.879145,-36.962874 4.566021,-0.964554 13.095381,-1.322446 17.771441,-0.745689 17.4524,2.152625 32.41912,11.741618 41.4485,26.555543 4.05791,6.65756 6.42969,13.39052 7.6296,21.65872 0.6981,4.81045 0.47634,13.40453 -0.46791,18.13392 -4.96458,24.86544 -24.85735,42.82617 -50.16937,45.29679 -3.74559,0.36559 -6.414346,0.36194 -10.313231,-0.0141 z"
     style="fill:#f2f2f2;fill-opacity:0;stroke-width:0.305052" /><path
     id="path20"
     d="m 94.953139,194.83699 c -22.026651,-2.12452 -40.857014,-17.07462 -47.793185,-37.94471 -3.971741,-11.95049 -3.966687,-24.0627 0.01501,-35.97758 6.297658,-18.84518 22.088304,-32.782135 41.879145,-36.962874 4.566021,-0.964554 13.095381,-1.322446 17.771441,-0.745689 17.4524,2.152625 32.41912,11.741618 41.4485,26.555543 4.05791,6.65756 6.42969,13.39052 7.6296,21.65872 0.6981,4.81045 0.47634,13.40453 -0.46791,18.13392 -4.96458,24.86544 -24.85735,42.82617 -50.16937,45.29679 -3.74559,0.36559 -6.414346,0.36194 -10.313231,-0.0141 z"
     style="fill:#f2f2f2;fill-opacity:0;stroke-width:0.305052" /><path
     id="path22"
     d="M 94.413727,229.94294 C 76.116783,228.74753 58.685822,221.99343 44.080076,210.4398 40.0284,207.23479 32.767009,199.95631 29.461128,195.78646 22.368854,186.84067 16.468545,175.63418 13.386521,165.25588 l -0.475522,-1.60125 -1.48447,2.81043 c -7.8384627,14.8399 -21.715722,25.89462 -37.606123,29.95729 -4.668995,1.19372 -7.369905,1.55284 -12.867117,1.71085 -10.364254,0.29791 -19.079175,-1.58316 -27.998286,-6.04329 -5.84492,-2.92283 -10.035978,-5.8875 -14.796378,-10.46666 -5.302092,-5.10023 -9.09322,-10.28141 -12.292462,-16.79961 -12.914223,-26.31168 -4.370568,-58.28241 20.006096,-74.863654 6.812492,-4.633923 13.639346,-7.53769 21.506197,-9.147546 25.762407,-5.271971 51.5312561,7.111196 64.221263,30.8614 0.78163,1.46287 1.392238,2.30806 1.477235,2.04476 0.07969,-0.24685 0.515691,-1.61564 0.968898,-3.04176 1.158852,-3.64659 3.167134,-8.50958 5.118512,-12.394316 C 32.627609,71.480339 57.67547,53.207752 87.092469,48.728508 93.022423,47.825571 103.444,47.612015 109.60037,48.267283 c 28.30679,3.012897 53.05366,18.761299 68.17127,43.382801 3.26292,5.314211 7.89898,15.500566 9.07604,19.941906 0.2001,0.75501 0.4346,1.48858 0.52112,1.63015 0.0865,0.14158 0.69618,-0.73568 1.35479,-1.94947 7.42324,-13.680556 19.43278,-23.893412 33.66915,-28.632072 14.74504,-4.907982 30.82707,-3.760567 44.6371,3.18475 17.78065,8.942201 29.81238,25.584562 32.51731,44.978062 0.61334,4.39736 0.61108,12.25161 -0.005,16.44057 -1.90252,12.94239 -7.61798,24.31735 -16.89389,33.62254 -8.59025,8.61733 -19.7519,14.4515 -31.74293,16.59193 -3.89836,0.69587 -12.43864,0.94576 -16.48345,0.48231 -19.29426,-2.21071 -36.32869,-13.85965 -45.57633,-31.16723 l -1.30623,-2.4447 -1.24259,3.62413 c -4.67348,13.63026 -12.13845,25.61565 -22.18087,35.61234 -4.80319,4.78131 -8.51225,7.81794 -14.10135,11.54482 -16.29536,10.86597 -35.97239,16.11524 -55.601203,14.83282 z m 10.852643,-35.09183 c 22.71758,-2.21739 41.28871,-16.94342 48.30198,-38.3012 1.88114,-5.72873 2.51013,-9.46587 2.68921,-15.97794 0.17024,-6.19086 -0.23414,-10.14973 -1.58913,-15.55767 -5.09862,-20.34913 -21.58926,-36.343715 -42.10408,-40.837553 -7.22733,-1.58317 -16.653642,-1.673349 -23.510241,-0.224921 -19.790841,4.180741 -35.581487,18.117694 -41.879145,36.962874 -3.981697,11.91488 -3.986751,24.02709 -0.01501,35.97758 6.297798,18.94931 22.268489,33.02901 42.033915,37.05695 5.648193,1.15102 10.646452,1.43149 16.072501,0.90188 z M -33.86082,162.23215 c 7.897518,-2.52244 13.373154,-7.82722 16.077322,-15.57566 0.979532,-2.80673 1.005202,-3.00805 0.989678,-7.76231 -0.01458,-4.46789 -0.08542,-5.08731 -0.837274,-7.32125 -2.421875,-7.19605 -8.031707,-13.02579 -14.859439,-15.44193 -6.146505,-2.17507 -12.695358,-1.8859 -18.557026,0.81941 -7.320203,3.37846 -12.250052,9.82981 -13.652219,17.86571 -2.199581,12.60592 5.60597,24.54967 18.120526,27.72733 3.28299,0.8336 9.619441,0.67851 12.718432,-0.3113 z m 282.32602,-0.26963 c 10.24062,-3.4918 16.46384,-12.21824 16.4707,-23.0958 0.008,-12.15056 -8.42167,-21.97605 -20.52899,-23.92917 -2.7933,-0.4506 -6.8573,-0.25667 -9.68636,0.46223 -4.68021,1.1893 -9.76674,4.43576 -12.77493,8.15353 -9.94367,12.28922 -5.619,30.99859 8.66215,37.47396 3.61387,1.63861 6.20034,2.11949 10.84123,2.01559 3.70755,-0.083 4.40721,-0.19072 7.0162,-1.08034 z"
     style="fill:#f2f2f2;fill-opacity:0;stroke-width:0.305052" /><path
     id="path24"
     d="M 94.413727,229.94294 C 76.116783,228.74753 58.685822,221.99343 44.080076,210.4398 40.0284,207.23479 32.767009,199.95631 29.461128,195.78646 22.368854,186.84067 16.468545,175.63418 13.386521,165.25588 l -0.475522,-1.60125 -1.48447,2.81043 c -7.8384627,14.8399 -21.715722,25.89462 -37.606123,29.95729 -4.668995,1.19372 -7.369905,1.55284 -12.867117,1.71085 -10.364254,0.29791 -19.079175,-1.58316 -27.998286,-6.04329 -5.84492,-2.92283 -10.035978,-5.8875 -14.796378,-10.46666 -5.302092,-5.10023 -9.09322,-10.28141 -12.292462,-16.79961 -12.914223,-26.31168 -4.370568,-58.28241 20.006096,-74.863654 6.812492,-4.633923 13.639346,-7.53769 21.506197,-9.147546 25.762407,-5.271971 51.5312561,7.111196 64.221263,30.8614 0.78163,1.46287 1.392238,2.30806 1.477235,2.04476 0.07969,-0.24685 0.515691,-1.61564 0.968898,-3.04176 1.158852,-3.64659 3.167134,-8.50958 5.118512,-12.394316 C 32.627609,71.480339 57.67547,53.207752 87.092469,48.728508 93.022423,47.825571 103.444,47.612015 109.60037,48.267283 c 28.30679,3.012897 53.05366,18.761299 68.17127,43.382801 3.26292,5.314211 7.89898,15.500566 9.07604,19.941906 0.2001,0.75501 0.4346,1.48858 0.52112,1.63015 0.0865,0.14158 0.69618,-0.73568 1.35479,-1.94947 7.42324,-13.680556 19.43278,-23.893412 33.66915,-28.632072 14.74504,-4.907982 30.82707,-3.760567 44.6371,3.18475 17.78065,8.942201 29.81238,25.584562 32.51731,44.978062 0.61334,4.39736 0.61108,12.25161 -0.005,16.44057 -1.90252,12.94239 -7.61798,24.31735 -16.89389,33.62254 -8.59025,8.61733 -19.7519,14.4515 -31.74293,16.59193 -3.89836,0.69587 -12.43864,0.94576 -16.48345,0.48231 -19.29426,-2.21071 -36.32869,-13.85965 -45.57633,-31.16723 l -1.30623,-2.4447 -1.24259,3.62413 c -4.67348,13.63026 -12.13845,25.61565 -22.18087,35.61234 -4.80319,4.78131 -8.51225,7.81794 -14.10135,11.54482 -16.29536,10.86597 -35.97239,16.11524 -55.601203,14.83282 z m 10.852643,-35.09183 c 22.71758,-2.21739 41.28871,-16.94342 48.30198,-38.3012 1.88114,-5.72873 2.51013,-9.46587 2.68921,-15.97794 0.17024,-6.19086 -0.23414,-10.14973 -1.58913,-15.55767 -5.09862,-20.34913 -21.58926,-36.343715 -42.10408,-40.837553 -7.22733,-1.58317 -16.653642,-1.673349 -23.510241,-0.224921 -19.790841,4.180741 -35.581487,18.117694 -41.879145,36.962874 -3.981697,11.91488 -3.986751,24.02709 -0.01501,35.97758 6.297798,18.94931 22.268489,33.02901 42.033915,37.05695 5.648193,1.15102 10.646452,1.43149 16.072501,0.90188 z M -33.86082,162.23215 c 7.897518,-2.52244 13.373154,-7.82722 16.077322,-15.57566 0.979532,-2.80673 1.005202,-3.00805 0.989678,-7.76231 -0.01458,-4.46789 -0.08542,-5.08731 -0.837274,-7.32125 -2.421875,-7.19605 -8.031707,-13.02579 -14.859439,-15.44193 -6.146505,-2.17507 -12.695358,-1.8859 -18.557026,0.81941 -7.320203,3.37846 -12.250052,9.82981 -13.652219,17.86571 -2.199581,12.60592 5.60597,24.54967 18.120526,27.72733 3.28299,0.8336 9.619441,0.67851 12.718432,-0.3113 z m 282.32602,-0.26963 c 10.24062,-3.4918 16.46384,-12.21824 16.4707,-23.0958 0.008,-12.15056 -8.42167,-21.97605 -20.52899,-23.92917 -2.7933,-0.4506 -6.8573,-0.25667 -9.68636,0.46223 -4.68021,1.1893 -9.76674,4.43576 -12.77493,8.15353 -9.94367,12.28922 -5.619,30.99859 8.66215,37.47396 3.61387,1.63861 6.20034,2.11949 10.84123,2.01559 3.70755,-0.083 4.40721,-0.19072 7.0162,-1.08034 z"
     style="fill:#f2f2f2;fill-opacity:0;stroke-width:0.305052" /><path
     id="path26"
     d="m 94.953139,194.83699 c -22.026651,-2.12452 -40.857014,-17.07462 -47.793185,-37.94471 -3.971741,-11.95049 -3.966687,-24.0627 0.01501,-35.97758 6.297658,-18.84518 22.088304,-32.782135 41.879145,-36.962874 4.566021,-0.964554 13.095381,-1.322446 17.771441,-0.745689 17.4524,2.152625 32.41912,11.741618 41.4485,26.555543 4.05791,6.65756 6.42969,13.39052 7.6296,21.65872 0.6981,4.81045 0.47634,13.40453 -0.46791,18.13392 -4.96458,24.86544 -24.85735,42.82617 -50.16937,45.29679 -3.74559,0.36559 -6.414346,0.36194 -10.313231,-0.0141 z"
     style="fill:#f2f2f2;fill-opacity:0;stroke-width:0.305052" /><path
     id="path28"
     d="M 94.413727,229.94294 C 76.116783,228.74753 58.685822,221.99343 44.080076,210.4398 40.0284,207.23479 32.767009,199.95631 29.461128,195.78646 22.368854,186.84067 16.468545,175.63418 13.386521,165.25588 l -0.475522,-1.60125 -1.48447,2.81043 c -7.8384627,14.8399 -21.715722,25.89462 -37.606123,29.95729 -4.668995,1.19372 -7.369905,1.55284 -12.867117,1.71085 -10.364254,0.29791 -19.079175,-1.58316 -27.998286,-6.04329 -5.84492,-2.92283 -10.035978,-5.8875 -14.796378,-10.46666 -5.302092,-5.10023 -9.09322,-10.28141 -12.292462,-16.79961 -12.914223,-26.31168 -4.370568,-58.28241 20.006096,-74.863654 6.812492,-4.633923 13.639346,-7.53769 21.506197,-9.147546 25.762407,-5.271971 51.5312561,7.111196 64.221263,30.8614 0.78163,1.46287 1.392238,2.30806 1.477235,2.04476 0.07969,-0.24685 0.515691,-1.61564 0.968898,-3.04176 1.158852,-3.64659 3.167134,-8.50958 5.118512,-12.394316 C 32.627609,71.480339 57.67547,53.207752 87.092469,48.728508 93.022423,47.825571 103.444,47.612015 109.60037,48.267283 c 28.30679,3.012897 53.05366,18.761299 68.17127,43.382801 3.26292,5.314211 7.89898,15.500566 9.07604,19.941906 0.2001,0.75501 0.4346,1.48858 0.52112,1.63015 0.0865,0.14158 0.69618,-0.73568 1.35479,-1.94947 7.42324,-13.680556 19.43278,-23.893412 33.66915,-28.632072 14.74504,-4.907982 30.82707,-3.760567 44.6371,3.18475 17.78065,8.942201 29.81238,25.584562 32.51731,44.978062 0.61334,4.39736 0.61108,12.25161 -0.005,16.44057 -1.90252,12.94239 -7.61798,24.31735 -16.89389,33.62254 -8.59025,8.61733 -19.7519,14.4515 -31.74293,16.59193 -3.89836,0.69587 -12.43864,0.94576 -16.48345,0.48231 -19.29426,-2.21071 -36.32869,-13.85965 -45.57633,-31.16723 l -1.30623,-2.4447 -1.24259,3.62413 c -4.67348,13.63026 -12.13845,25.61565 -22.18087,35.61234 -4.80319,4.78131 -8.51225,7.81794 -14.10135,11.54482 -16.29536,10.86597 -35.97239,16.11524 -55.601203,14.83282 z m 10.852643,-35.09183 c 22.71758,-2.21739 41.28871,-16.94342 48.30198,-38.3012 1.88114,-5.72873 2.51013,-9.46587 2.68921,-15.97794 0.17024,-6.19086 -0.23414,-10.14973 -1.58913,-15.55767 -5.09862,-20.34913 -21.58926,-36.343715 -42.10408,-40.837553 -7.22733,-1.58317 -16.653642,-1.673349 -23.510241,-0.224921 -19.790841,4.180741 -35.581487,18.117694 -41.879145,36.962874 -3.981697,11.91488 -3.986751,24.02709 -0.01501,35.97758 6.297798,18.94931 22.268489,33.02901 42.033915,37.05695 5.648193,1.15102 10.646452,1.43149 16.072501,0.90188 z M -33.86082,162.23215 c 7.897518,-2.52244 13.373154,-7.82722 16.077322,-15.57566 0.979532,-2.80673 1.005202,-3.00805 0.989678,-7.76231 -0.01458,-4.46789 -0.08542,-5.08731 -0.837274,-7.32125 -2.421875,-7.19605 -8.031707,-13.02579 -14.859439,-15.44193 -6.146505,-2.17507 -12.695358,-1.8859 -18.557026,0.81941 -7.320203,3.37846 -12.250052,9.82981 -13.652219,17.86571 -2.199581,12.60592 5.60597,24.54967 18.120526,27.72733 3.28299,0.8336 9.619441,0.67851 12.718432,-0.3113 z m 282.32602,-0.26963 c 10.24062,-3.4918 16.46384,-12.21824 16.4707,-23.0958 0.008,-12.15056 -8.42167,-21.97605 -20.52899,-23.92917 -2.7933,-0.4506 -6.8573,-0.25667 -9.68636,0.46223 -4.68021,1.1893 -9.76674,4.43576 -12.77493,8.15353 -9.94367,12.28922 -5.619,30.99859 8.66215,37.47396 3.61387,1.63861 6.20034,2.11949 10.84123,2.01559 3.70755,-0.083 4.40721,-0.19072 7.0162,-1.08034 z"
     style="fill:#f2f2f2;fill-opacity:0;stroke-width:0.305052" /><path
     id="path30"
     d="M 94.413727,229.94294 C 76.116783,228.74753 58.685822,221.99343 44.080076,210.4398 40.0284,207.23479 32.767009,199.95631 29.461128,195.78646 22.368854,186.84067 16.468545,175.63418 13.386521,165.25588 l -0.475522,-1.60125 -1.48447,2.81043 c -7.8384627,14.8399 -21.715722,25.89462 -37.606123,29.95729 -4.668995,1.19372 -7.369905,1.55284 -12.867117,1.71085 -10.364254,0.29791 -19.079175,-1.58316 -27.998286,-6.04329 -5.84492,-2.92283 -10.035978,-5.8875 -14.796378,-10.46666 -5.302092,-5.10023 -9.09322,-10.28141 -12.292462,-16.79961 -12.914223,-26.31168 -4.370568,-58.28241 20.006096,-74.863654 6.812492,-4.633923 13.639346,-7.53769 21.506197,-9.147546 25.762407,-5.271971 51.5312561,7.111196 64.221263,30.8614 0.78163,1.46287 1.392238,2.30806 1.477235,2.04476 0.07969,-0.24685 0.515691,-1.61564 0.968898,-3.04176 1.158852,-3.64659 3.167134,-8.50958 5.118512,-12.394316 C 32.627609,71.480339 57.67547,53.207752 87.092469,48.728508 93.022423,47.825571 103.444,47.612015 109.60037,48.267283 c 28.30679,3.012897 53.05366,18.761299 68.17127,43.382801 3.26292,5.314211 7.89898,15.500566 9.07604,19.941906 0.2001,0.75501 0.4346,1.48858 0.52112,1.63015 0.0865,0.14158 0.69618,-0.73568 1.35479,-1.94947 7.42324,-13.680556 19.43278,-23.893412 33.66915,-28.632072 14.74504,-4.907982 30.82707,-3.760567 44.6371,3.18475 17.78065,8.942201 29.81238,25.584562 32.51731,44.978062 0.61334,4.39736 0.61108,12.25161 -0.005,16.44057 -1.90252,12.94239 -7.61798,24.31735 -16.89389,33.62254 -8.59025,8.61733 -19.7519,14.4515 -31.74293,16.59193 -3.89836,0.69587 -12.43864,0.94576 -16.48345,0.48231 -19.29426,-2.21071 -36.32869,-13.85965 -45.57633,-31.16723 l -1.30623,-2.4447 -1.24259,3.62413 c -4.67348,13.63026 -12.13845,25.61565 -22.18087,35.61234 -4.80319,4.78131 -8.51225,7.81794 -14.10135,11.54482 -16.29536,10.86597 -35.97239,16.11524 -55.601203,14.83282 z m 10.852643,-35.09183 c 22.71758,-2.21739 41.28871,-16.94342 48.30198,-38.3012 1.88114,-5.72873 2.51013,-9.46587 2.68921,-15.97794 0.17024,-6.19086 -0.23414,-10.14973 -1.58913,-15.55767 -5.09862,-20.34913 -21.58926,-36.343715 -42.10408,-40.837553 -7.22733,-1.58317 -16.653642,-1.673349 -23.510241,-0.224921 -19.790841,4.180741 -35.581487,18.117694 -41.879145,36.962874 -3.981697,11.91488 -3.986751,24.02709 -0.01501,35.97758 6.297798,18.94931 22.268489,33.02901 42.033915,37.05695 5.648193,1.15102 10.646452,1.43149 16.072501,0.90188 z M -33.86082,162.23215 c 7.897518,-2.52244 13.373154,-7.82722 16.077322,-15.57566 0.979532,-2.80673 1.005202,-3.00805 0.989678,-7.76231 -0.01458,-4.46789 -0.08542,-5.08731 -0.837274,-7.32125 -2.421875,-7.19605 -8.031707,-13.02579 -14.859439,-15.44193 -6.146505,-2.17507 -12.695358,-1.8859 -18.557026,0.81941 -7.320203,3.37846 -12.250052,9.82981 -13.652219,17.86571 -2.199581,12.60592 5.60597,24.54967 18.120526,27.72733 3.28299,0.8336 9.619441,0.67851 12.718432,-0.3113 z m 282.32602,-0.26963 c 10.24062,-3.4918 16.46384,-12.21824 16.4707,-23.0958 0.008,-12.15056 -8.42167,-21.97605 -20.52899,-23.92917 -2.7933,-0.4506 -6.8573,-0.25667 -9.68636,0.46223 -4.68021,1.1893 -9.76674,4.43576 -12.77493,8.15353 -9.94367,12.28922 -5.619,30.99859 8.66215,37.47396 3.61387,1.63861 6.20034,2.11949 10.84123,2.01559 3.70755,-0.083 4.40721,-0.19072 7.0162,-1.08034 z"
     style="fill:#f2f2f2;fill-opacity:0;stroke-width:0.305052" /><path
     id="path32"
     d="M 94.413727,229.94294 C 76.116783,228.74753 58.685822,221.99343 44.080076,210.4398 40.0284,207.23479 32.767009,199.95631 29.461128,195.78646 22.368854,186.84067 16.468545,175.63418 13.386521,165.25588 l -0.475522,-1.60125 -1.48447,2.81043 c -7.8384627,14.8399 -21.715722,25.89462 -37.606123,29.95729 -4.668995,1.19372 -7.369905,1.55284 -12.867117,1.71085 -10.364254,0.29791 -19.079175,-1.58316 -27.998286,-6.04329 -5.84492,-2.92283 -10.035978,-5.8875 -14.796378,-10.46666 -5.302092,-5.10023 -9.09322,-10.28141 -12.292462,-16.79961 -12.914223,-26.31168 -4.370568,-58.28241 20.006096,-74.863654 6.812492,-4.633923 13.639346,-7.53769 21.506197,-9.147546 25.762407,-5.271971 51.5312561,7.111196 64.221263,30.8614 0.78163,1.46287 1.392238,2.30806 1.477235,2.04476 0.07969,-0.24685 0.515691,-1.61564 0.968898,-3.04176 1.158852,-3.64659 3.167134,-8.50958 5.118512,-12.394316 C 32.627609,71.480339 57.67547,53.207752 87.092469,48.728508 93.022423,47.825571 103.444,47.612015 109.60037,48.267283 c 28.30679,3.012897 53.05366,18.761299 68.17127,43.382801 3.26292,5.314211 7.89898,15.500566 9.07604,19.941906 0.2001,0.75501 0.4346,1.48858 0.52112,1.63015 0.0865,0.14158 0.69618,-0.73568 1.35479,-1.94947 7.42324,-13.680556 19.43278,-23.893412 33.66915,-28.632072 14.74504,-4.907982 30.82707,-3.760567 44.6371,3.18475 17.78065,8.942201 29.81238,25.584562 32.51731,44.978062 0.61334,4.39736 0.61108,12.25161 -0.005,16.44057 -1.90252,12.94239 -7.61798,24.31735 -16.89389,33.62254 -8.59025,8.61733 -19.7519,14.4515 -31.74293,16.59193 -3.89836,0.69587 -12.43864,0.94576 -16.48345,0.48231 -19.29426,-2.21071 -36.32869,-13.85965 -45.57633,-31.16723 l -1.30623,-2.4447 -1.24259,3.62413 c -4.67348,13.63026 -12.13845,25.61565 -22.18087,35.61234 -4.80319,4.78131 -8.51225,7.81794 -14.10135,11.54482 -16.29536,10.86597 -35.97239,16.11524 -55.601203,14.83282 z m 10.852643,-35.09183 c 22.71758,-2.21739 41.28871,-16.94342 48.30198,-38.3012 1.88114,-5.72873 2.51013,-9.46587 2.68921,-15.97794 0.17024,-6.19086 -0.23414,-10.14973 -1.58913,-15.55767 -5.09862,-20.34913 -21.58926,-36.343715 -42.10408,-40.837553 -7.22733,-1.58317 -16.653642,-1.673349 -23.510241,-0.224921 -19.790841,4.180741 -35.581487,18.117694 -41.879145,36.962874 -3.981697,11.91488 -3.986751,24.02709 -0.01501,35.97758 6.297798,18.94931 22.268489,33.02901 42.033915,37.05695 5.648193,1.15102 10.646452,1.43149 16.072501,0.90188 z M -33.86082,162.23215 c 7.897518,-2.52244 13.373154,-7.82722 16.077322,-15.57566 0.979532,-2.80673 1.005202,-3.00805 0.989678,-7.76231 -0.01458,-4.46789 -0.08542,-5.08731 -0.837274,-7.32125 -2.421875,-7.19605 -8.031707,-13.02579 -14.859439,-15.44193 -6.146505,-2.17507 -12.695358,-1.8859 -18.557026,0.81941 -7.320203,3.37846 -12.250052,9.82981 -13.652219,17.86571 -2.199581,12.60592 5.60597,24.54967 18.120526,27.72733 3.28299,0.8336 9.619441,0.67851 12.718432,-0.3113 z m 282.32602,-0.26963 c 10.24062,-3.4918 16.46384,-12.21824 16.4707,-23.0958 0.008,-12.15056 -8.42167,-21.97605 -20.52899,-23.92917 -2.7933,-0.4506 -6.8573,-0.25667 -9.68636,0.46223 -4.68021,1.1893 -9.76674,4.43576 -12.77493,8.15353 -9.94367,12.28922 -5.619,30.99859 8.66215,37.47396 3.61387,1.63861 6.20034,2.11949 10.84123,2.01559 3.70755,-0.083 4.40721,-0.19072 7.0162,-1.08034 z"
     style="fill:#f2f2f2;fill-opacity:0;stroke-width:0.305052" /><path
     id="path34"
     d="M 94.413727,229.94294 C 76.116783,228.74753 58.685822,221.99343 44.080076,210.4398 40.0284,207.23479 32.767009,199.95631 29.461128,195.78646 22.368854,186.84067 16.468545,175.63418 13.386521,165.25588 l -0.475522,-1.60125 -1.48447,2.81043 c -7.8384627,14.8399 -21.715722,25.89462 -37.606123,29.95729 -4.668995,1.19372 -7.369905,1.55284 -12.867117,1.71085 -10.364254,0.29791 -19.079175,-1.58316 -27.998286,-6.04329 -5.84492,-2.92283 -10.035978,-5.8875 -14.796378,-10.46666 -5.302092,-5.10023 -9.09322,-10.28141 -12.292462,-16.79961 -12.914223,-26.31168 -4.370568,-58.28241 20.006096,-74.863654 6.812492,-4.633923 13.639346,-7.53769 21.506197,-9.147546 25.762407,-5.271971 51.5312561,7.111196 64.221263,30.8614 0.78163,1.46287 1.392238,2.30806 1.477235,2.04476 0.07969,-0.24685 0.515691,-1.61564 0.968898,-3.04176 1.158852,-3.64659 3.167134,-8.50958 5.118512,-12.394316 C 32.627609,71.480339 57.67547,53.207752 87.092469,48.728508 93.022423,47.825571 103.444,47.612015 109.60037,48.267283 c 28.30679,3.012897 53.05366,18.761299 68.17127,43.382801 3.26292,5.314211 7.89898,15.500566 9.07604,19.941906 0.2001,0.75501 0.4346,1.48858 0.52112,1.63015 0.0865,0.14158 0.69618,-0.73568 1.35479,-1.94947 7.42324,-13.680556 19.43278,-23.893412 33.66915,-28.632072 14.74504,-4.907982 30.82707,-3.760567 44.6371,3.18475 17.78065,8.942201 29.81238,25.584562 32.51731,44.978062 0.61334,4.39736 0.61108,12.25161 -0.005,16.44057 -1.90252,12.94239 -7.61798,24.31735 -16.89389,33.62254 -8.59025,8.61733 -19.7519,14.4515 -31.74293,16.59193 -3.89836,0.69587 -12.43864,0.94576 -16.48345,0.48231 -19.29426,-2.21071 -36.32869,-13.85965 -45.57633,-31.16723 l -1.30623,-2.4447 -1.24259,3.62413 c -4.67348,13.63026 -12.13845,25.61565 -22.18087,35.61234 -4.80319,4.78131 -8.51225,7.81794 -14.10135,11.54482 -16.29536,10.86597 -35.97239,16.11524 -55.601203,14.83282 z m 10.852643,-35.09183 c 22.71758,-2.21739 41.28871,-16.94342 48.30198,-38.3012 1.88114,-5.72873 2.51013,-9.46587 2.68921,-15.97794 0.17024,-6.19086 -0.23414,-10.14973 -1.58913,-15.55767 -5.09862,-20.34913 -21.58926,-36.343715 -42.10408,-40.837553 -7.22733,-1.58317 -16.653642,-1.673349 -23.510241,-0.224921 -19.790841,4.180741 -35.581487,18.117694 -41.879145,36.962874 -3.981697,11.91488 -3.986751,24.02709 -0.01501,35.97758 6.297798,18.94931 22.268489,33.02901 42.033915,37.05695 5.648193,1.15102 10.646452,1.43149 16.072501,0.90188 z M -33.86082,162.23215 c 7.897518,-2.52244 13.373154,-7.82722 16.077322,-15.57566 0.979532,-2.80673 1.005202,-3.00805 0.989678,-7.76231 -0.01458,-4.46789 -0.08542,-5.08731 -0.837274,-7.32125 -2.421875,-7.19605 -8.031707,-13.02579 -14.859439,-15.44193 -6.146505,-2.17507 -12.695358,-1.8859 -18.557026,0.81941 -7.320203,3.37846 -12.250052,9.82981 -13.652219,17.86571 -2.199581,12.60592 5.60597,24.54967 18.120526,27.72733 3.28299,0.8336 9.619441,0.67851 12.718432,-0.3113 z m 282.32602,-0.26963 c 10.24062,-3.4918 16.46384,-12.21824 16.4707,-23.0958 0.008,-12.15056 -8.42167,-21.97605 -20.52899,-23.92917 -2.7933,-0.4506 -6.8573,-0.25667 -9.68636,0.46223 -4.68021,1.1893 -9.76674,4.43576 -12.77493,8.15353 -9.94367,12.28922 -5.619,30.99859 8.66215,37.47396 3.61387,1.63861 6.20034,2.11949 10.84123,2.01559 3.70755,-0.083 4.40721,-0.19072 7.0162,-1.08034 z"
     style="fill:#f2f2f2;fill-opacity:0;stroke-width:0.305052" /><path
     id="path36"
     d="M 94.413727,229.94294 C 76.116783,228.74753 58.685822,221.99343 44.080076,210.4398 40.0284,207.23479 32.767009,199.95631 29.461128,195.78646 22.368854,186.84067 16.468545,175.63418 13.386521,165.25588 l -0.475522,-1.60125 -1.48447,2.81043 c -7.8384627,14.8399 -21.715722,25.89462 -37.606123,29.95729 -4.668995,1.19372 -7.369905,1.55284 -12.867117,1.71085 -10.364254,0.29791 -19.079175,-1.58316 -27.998286,-6.04329 -5.84492,-2.92283 -10.035978,-5.8875 -14.796378,-10.46666 -5.302092,-5.10023 -9.09322,-10.28141 -12.292462,-16.79961 -12.914223,-26.31168 -4.370568,-58.28241 20.006096,-74.863654 6.812492,-4.633923 13.639346,-7.53769 21.506197,-9.147546 25.762407,-5.271971 51.5312561,7.111196 64.221263,30.8614 0.78163,1.46287 1.392238,2.30806 1.477235,2.04476 0.07969,-0.24685 0.515691,-1.61564 0.968898,-3.04176 1.158852,-3.64659 3.167134,-8.50958 5.118512,-12.394316 C 32.627609,71.480339 57.67547,53.207752 87.092469,48.728508 93.022423,47.825571 103.444,47.612015 109.60037,48.267283 c 28.30679,3.012897 53.05366,18.761299 68.17127,43.382801 3.26292,5.314211 7.89898,15.500566 9.07604,19.941906 0.2001,0.75501 0.4346,1.48858 0.52112,1.63015 0.0865,0.14158 0.69618,-0.73568 1.35479,-1.94947 7.42324,-13.680556 19.43278,-23.893412 33.66915,-28.632072 14.74504,-4.907982 30.82707,-3.760567 44.6371,3.18475 17.78065,8.942201 29.81238,25.584562 32.51731,44.978062 0.61334,4.39736 0.61108,12.25161 -0.005,16.44057 -1.90252,12.94239 -7.61798,24.31735 -16.89389,33.62254 -8.59025,8.61733 -19.7519,14.4515 -31.74293,16.59193 -3.89836,0.69587 -12.43864,0.94576 -16.48345,0.48231 -19.29426,-2.21071 -36.32869,-13.85965 -45.57633,-31.16723 l -1.30623,-2.4447 -1.24259,3.62413 c -4.67348,13.63026 -12.13845,25.61565 -22.18087,35.61234 -4.80319,4.78131 -8.51225,7.81794 -14.10135,11.54482 -16.29536,10.86597 -35.97239,16.11524 -55.601203,14.83282 z m 10.852643,-35.09183 c 22.71758,-2.21739 41.28871,-16.94342 48.30198,-38.3012 1.88114,-5.72873 2.51013,-9.46587 2.68921,-15.97794 0.17024,-6.19086 -0.23414,-10.14973 -1.58913,-15.55767 -5.09862,-20.34913 -21.58926,-36.343715 -42.10408,-40.837553 -7.22733,-1.58317 -16.653642,-1.673349 -23.510241,-0.224921 -19.790841,4.180741 -35.581487,18.117694 -41.879145,36.962874 -3.981697,11.91488 -3.986751,24.02709 -0.01501,35.97758 6.297798,18.94931 22.268489,33.02901 42.033915,37.05695 5.648193,1.15102 10.646452,1.43149 16.072501,0.90188 z M -33.86082,162.23215 c 7.897518,-2.52244 13.373154,-7.82722 16.077322,-15.57566 0.979532,-2.80673 1.005202,-3.00805 0.989678,-7.76231 -0.01458,-4.46789 -0.08542,-5.08731 -0.837274,-7.32125 -2.421875,-7.19605 -8.031707,-13.02579 -14.859439,-15.44193 -6.146505,-2.17507 -12.695358,-1.8859 -18.557026,0.81941 -7.320203,3.37846 -12.250052,9.82981 -13.652219,17.86571 -2.199581,12.60592 5.60597,24.54967 18.120526,27.72733 3.28299,0.8336 9.619441,0.67851 12.718432,-0.3113 z m 282.32602,-0.26963 c 10.24062,-3.4918 16.46384,-12.21824 16.4707,-23.0958 0.008,-12.15056 -8.42167,-21.97605 -20.52899,-23.92917 -2.7933,-0.4506 -6.8573,-0.25667 -9.68636,0.46223 -4.68021,1.1893 -9.76674,4.43576 -12.77493,8.15353 -9.94367,12.28922 -5.619,30.99859 8.66215,37.47396 3.61387,1.63861 6.20034,2.11949 10.84123,2.01559 3.70755,-0.083 4.40721,-0.19072 7.0162,-1.08034 z"
     style="fill:#f2f2f2;fill-opacity:0;stroke-width:0.305052" /><path
     id="path38"
     d="M 94.413727,229.94294 C 76.116783,228.74753 58.685822,221.99343 44.080076,210.4398 40.0284,207.23479 32.767009,199.95631 29.461128,195.78646 22.368854,186.84067 16.468545,175.63418 13.386521,165.25588 l -0.475522,-1.60125 -1.48447,2.81043 c -7.8384627,14.8399 -21.715722,25.89462 -37.606123,29.95729 -4.668995,1.19372 -7.369905,1.55284 -12.867117,1.71085 -10.364254,0.29791 -19.079175,-1.58316 -27.998286,-6.04329 -5.84492,-2.92283 -10.035978,-5.8875 -14.796378,-10.46666 -5.302092,-5.10023 -9.09322,-10.28141 -12.292462,-16.79961 -12.914223,-26.31168 -4.370568,-58.28241 20.006096,-74.863654 6.812492,-4.633923 13.639346,-7.53769 21.506197,-9.147546 25.762407,-5.271971 51.5312561,7.111196 64.221263,30.8614 0.78163,1.46287 1.392238,2.30806 1.477235,2.04476 0.07969,-0.24685 0.515691,-1.61564 0.968898,-3.04176 1.158852,-3.64659 3.167134,-8.50958 5.118512,-12.394316 C 32.627609,71.480339 57.67547,53.207752 87.092469,48.728508 93.022423,47.825571 103.444,47.612015 109.60037,48.267283 c 28.30679,3.012897 53.05366,18.761299 68.17127,43.382801 3.26292,5.314211 7.89898,15.500566 9.07604,19.941906 0.2001,0.75501 0.4346,1.48858 0.52112,1.63015 0.0865,0.14158 0.69618,-0.73568 1.35479,-1.94947 7.42324,-13.680556 19.43278,-23.893412 33.66915,-28.632072 14.74504,-4.907982 30.82707,-3.760567 44.6371,3.18475 17.78065,8.942201 29.81238,25.584562 32.51731,44.978062 0.61334,4.39736 0.61108,12.25161 -0.005,16.44057 -1.90252,12.94239 -7.61798,24.31735 -16.89389,33.62254 -8.59025,8.61733 -19.7519,14.4515 -31.74293,16.59193 -3.89836,0.69587 -12.43864,0.94576 -16.48345,0.48231 -19.29426,-2.21071 -36.32869,-13.85965 -45.57633,-31.16723 l -1.30623,-2.4447 -1.24259,3.62413 c -4.67348,13.63026 -12.13845,25.61565 -22.18087,35.61234 -4.80319,4.78131 -8.51225,7.81794 -14.10135,11.54482 -16.29536,10.86597 -35.97239,16.11524 -55.601203,14.83282 z M -33.86082,162.23215 c 7.897518,-2.52244 13.373154,-7.82722 16.077322,-15.57566 0.979532,-2.80673 1.005202,-3.00805 0.989678,-7.76231 -0.01458,-4.46789 -0.08542,-5.08731 -0.837274,-7.32125 -2.421875,-7.19605 -8.031707,-13.02579 -14.859439,-15.44193 -6.146505,-2.17507 -12.695358,-1.8859 -18.557026,0.81941 -7.320203,3.37846 -12.250052,9.82981 -13.652219,17.86571 -2.199581,12.60592 5.60597,24.54967 18.120526,27.72733 3.28299,0.8336 9.619441,0.67851 12.718432,-0.3113 z m 282.32602,-0.26963 c 10.24062,-3.4918 16.46384,-12.21824 16.4707,-23.0958 0.008,-12.15056 -8.42167,-21.97605 -20.52899,-23.92917 -2.7933,-0.4506 -6.8573,-0.25667 -9.68636,0.46223 -4.68021,1.1893 -9.76674,4.43576 -12.77493,8.15353 -9.94367,12.28922 -5.619,30.99859 8.66215,37.47396 3.61387,1.63861 6.20034,2.11949 10.84123,2.01559 3.70755,-0.083 4.40721,-0.19072 7.0162,-1.08034 z"
     style="fill:#f2f2f2;fill-opacity:0;stroke-width:0.305052" /><path
     id="path40"
     d="M 94.413727,229.94294 C 76.116783,228.74753 58.685822,221.99343 44.080076,210.4398 40.0284,207.23479 32.767009,199.95631 29.461128,195.78646 22.368854,186.84067 16.468545,175.63418 13.386521,165.25588 l -0.475522,-1.60125 -1.48447,2.81043 c -7.8384627,14.8399 -21.715722,25.89462 -37.606123,29.95729 -4.668995,1.19372 -7.369905,1.55284 -12.867117,1.71085 -10.364254,0.29791 -19.079175,-1.58316 -27.998286,-6.04329 -5.84492,-2.92283 -10.035978,-5.8875 -14.796378,-10.46666 -5.302092,-5.10023 -9.09322,-10.28141 -12.292462,-16.79961 -12.914223,-26.31168 -4.370568,-58.28241 20.006096,-74.863654 6.812492,-4.633923 13.639346,-7.53769 21.506197,-9.147546 25.762407,-5.271971 51.5312561,7.111196 64.221263,30.8614 0.78163,1.46287 1.392238,2.30806 1.477235,2.04476 0.07969,-0.24685 0.515691,-1.61564 0.968898,-3.04176 1.158852,-3.64659 3.167134,-8.50958 5.118512,-12.394316 C 32.627609,71.480339 57.67547,53.207752 87.092469,48.728508 93.022423,47.825571 103.444,47.612015 109.60037,48.267283 c 28.30679,3.012897 53.05366,18.761299 68.17127,43.382801 3.26292,5.314211 7.89898,15.500566 9.07604,19.941906 0.2001,0.75501 0.4346,1.48858 0.52112,1.63015 0.0865,0.14158 0.69618,-0.73568 1.35479,-1.94947 7.42324,-13.680556 19.43278,-23.893412 33.66915,-28.632072 14.74504,-4.907982 30.82707,-3.760567 44.6371,3.18475 17.78065,8.942201 29.81238,25.584562 32.51731,44.978062 0.61334,4.39736 0.61108,12.25161 -0.005,16.44057 -1.90252,12.94239 -7.61798,24.31735 -16.89389,33.62254 -8.59025,8.61733 -19.7519,14.4515 -31.74293,16.59193 -3.89836,0.69587 -12.43864,0.94576 -16.48345,0.48231 -19.29426,-2.21071 -36.32869,-13.85965 -45.57633,-31.16723 l -1.30623,-2.4447 -1.24259,3.62413 c -4.67348,13.63026 -12.13845,25.61565 -22.18087,35.61234 -4.80319,4.78131 -8.51225,7.81794 -14.10135,11.54482 -16.29536,10.86597 -35.97239,16.11524 -55.601203,14.83282 z m 10.852643,-35.09183 c 22.71758,-2.21739 41.28871,-16.94342 48.30198,-38.3012 1.88114,-5.72873 2.51013,-9.46587 2.68921,-15.97794 0.17024,-6.19086 -0.23414,-10.14973 -1.58913,-15.55767 -5.09862,-20.34913 -21.58926,-36.343715 -42.10408,-40.837553 -7.22733,-1.58317 -16.653642,-1.673349 -23.510241,-0.224921 -19.790841,4.180741 -35.581487,18.117694 -41.879145,36.962874 -3.981697,11.91488 -3.986751,24.02709 -0.01501,35.97758 6.297798,18.94931 22.268489,33.02901 42.033915,37.05695 5.648193,1.15102 10.646452,1.43149 16.072501,0.90188 z M -33.86082,162.23215 c 7.897518,-2.52244 13.373154,-7.82722 16.077322,-15.57566 0.979532,-2.80673 1.005202,-3.00805 0.989678,-7.76231 -0.01458,-4.46789 -0.08542,-5.08731 -0.837274,-7.32125 -2.421875,-7.19605 -8.031707,-13.02579 -14.859439,-15.44193 -6.146505,-2.17507 -12.695358,-1.8859 -18.557026,0.81941 -7.320203,3.37846 -12.250052,9.82981 -13.652219,17.86571 -2.199581,12.60592 5.60597,24.54967 18.120526,27.72733 3.28299,0.8336 9.619441,0.67851 12.718432,-0.3113 z m 282.32602,-0.26963 c 10.24062,-3.4918 16.46384,-12.21824 16.4707,-23.0958 0.008,-12.15056 -8.42167,-21.97605 -20.52899,-23.92917 -2.7933,-0.4506 -6.8573,-0.25667 -9.68636,0.46223 -4.68021,1.1893 -9.76674,4.43576 -12.77493,8.15353 -9.94367,12.28922 -5.619,30.99859 8.66215,37.47396 3.61387,1.63861 6.20034,2.11949 10.84123,2.01559 3.70755,-0.083 4.40721,-0.19072 7.0162,-1.08034 z"
     style="fill:#f2f2f2;fill-opacity:0;stroke-width:0.305052" /><path
     id="path42"
     d="M 94.413727,229.94294 C 76.116783,228.74753 58.685822,221.99343 44.080076,210.4398 40.0284,207.23479 32.767009,199.95631 29.461128,195.78646 22.368854,186.84067 16.468545,175.63418 13.386521,165.25588 l -0.475522,-1.60125 -1.48447,2.81043 c -7.8384627,14.8399 -21.715722,25.89462 -37.606123,29.95729 -4.668995,1.19372 -7.369905,1.55284 -12.867117,1.71085 -10.364254,0.29791 -19.079175,-1.58316 -27.998286,-6.04329 -5.84492,-2.92283 -10.035978,-5.8875 -14.796378,-10.46666 -5.302092,-5.10023 -9.09322,-10.28141 -12.292462,-16.79961 -12.914223,-26.31168 -4.370568,-58.28241 20.006096,-74.863654 6.812492,-4.633923 13.639346,-7.53769 21.506197,-9.147546 25.762407,-5.271971 51.5312561,7.111196 64.221263,30.8614 0.78163,1.46287 1.392238,2.30806 1.477235,2.04476 0.07969,-0.24685 0.515691,-1.61564 0.968898,-3.04176 1.158852,-3.64659 3.167134,-8.50958 5.118512,-12.394316 C 32.627609,71.480339 57.67547,53.207752 87.092469,48.728508 93.022423,47.825571 103.444,47.612015 109.60037,48.267283 c 28.30679,3.012897 53.05366,18.761299 68.17127,43.382801 3.26292,5.314211 7.89898,15.500566 9.07604,19.941906 0.2001,0.75501 0.4346,1.48858 0.52112,1.63015 0.0865,0.14158 0.69618,-0.73568 1.35479,-1.94947 7.42324,-13.680556 19.43278,-23.893412 33.66915,-28.632072 14.74504,-4.907982 30.82707,-3.760567 44.6371,3.18475 17.78065,8.942201 29.81238,25.584562 32.51731,44.978062 0.61334,4.39736 0.61108,12.25161 -0.005,16.44057 -1.90252,12.94239 -7.61798,24.31735 -16.89389,33.62254 -8.59025,8.61733 -19.7519,14.4515 -31.74293,16.59193 -3.89836,0.69587 -12.43864,0.94576 -16.48345,0.48231 -19.29426,-2.21071 -36.32869,-13.85965 -45.57633,-31.16723 l -1.30623,-2.4447 -1.24259,3.62413 c -4.67348,13.63026 -12.13845,25.61565 -22.18087,35.61234 -4.80319,4.78131 -8.51225,7.81794 -14.10135,11.54482 -16.29536,10.86597 -35.97239,16.11524 -55.601203,14.83282 z m 10.852643,-35.09183 c 22.71758,-2.21739 41.28871,-16.94342 48.30198,-38.3012 1.88114,-5.72873 2.51013,-9.46587 2.68921,-15.97794 0.17024,-6.19086 -0.23414,-10.14973 -1.58913,-15.55767 -5.09862,-20.34913 -21.58926,-36.343715 -42.10408,-40.837553 -7.22733,-1.58317 -16.653642,-1.673349 -23.510241,-0.224921 -19.790841,4.180741 -35.581487,18.117694 -41.879145,36.962874 -3.981697,11.91488 -3.986751,24.02709 -0.01501,35.97758 6.297798,18.94931 22.268489,33.02901 42.033915,37.05695 5.648193,1.15102 10.646452,1.43149 16.072501,0.90188 z M -33.86082,162.23215 c 7.897518,-2.52244 13.373154,-7.82722 16.077322,-15.57566 0.979532,-2.80673 1.005202,-3.00805 0.989678,-7.76231 -0.01458,-4.46789 -0.08542,-5.08731 -0.837274,-7.32125 -2.421875,-7.19605 -8.031707,-13.02579 -14.859439,-15.44193 -6.146505,-2.17507 -12.695358,-1.8859 -18.557026,0.81941 -7.320203,3.37846 -12.250052,9.82981 -13.652219,17.86571 -2.199581,12.60592 5.60597,24.54967 18.120526,27.72733 3.28299,0.8336 9.619441,0.67851 12.718432,-0.3113 z m 282.32602,-0.26963 c 10.24062,-3.4918 16.46384,-12.21824 16.4707,-23.0958 0.008,-12.15056 -8.42167,-21.97605 -20.52899,-23.92917 -2.7933,-0.4506 -6.8573,-0.25667 -9.68636,0.46223 -4.68021,1.1893 -9.76674,4.43576 -12.77493,8.15353 -9.94367,12.28922 -5.619,30.99859 8.66215,37.47396 3.61387,1.63861 6.20034,2.11949 10.84123,2.01559 3.70755,-0.083 4.40721,-0.19072 7.0162,-1.08034 z"
     style="fill:#f2f2f2;fill-opacity:0;stroke-width:0.305052" /><path
     id="path44"
     d="M 94.413727,229.94294 C 76.116783,228.74753 58.685822,221.99343 44.080076,210.4398 40.0284,207.23479 32.767009,199.95631 29.461128,195.78646 22.368854,186.84067 16.468545,175.63418 13.386521,165.25588 l -0.475522,-1.60125 -1.48447,2.81043 c -7.8384627,14.8399 -21.715722,25.89462 -37.606123,29.95729 -4.668995,1.19372 -7.369905,1.55284 -12.867117,1.71085 -10.364254,0.29791 -19.079175,-1.58316 -27.998286,-6.04329 -5.84492,-2.92283 -10.035978,-5.8875 -14.796378,-10.46666 -5.302092,-5.10023 -9.09322,-10.28141 -12.292462,-16.79961 -12.914223,-26.31168 -4.370568,-58.28241 20.006096,-74.863654 6.812492,-4.633923 13.639346,-7.53769 21.506197,-9.147546 25.762407,-5.271971 51.5312561,7.111196 64.221263,30.8614 0.78163,1.46287 1.392238,2.30806 1.477235,2.04476 0.07969,-0.24685 0.515691,-1.61564 0.968898,-3.04176 1.158852,-3.64659 3.167134,-8.50958 5.118512,-12.394316 C 32.627609,71.480339 57.67547,53.207752 87.092469,48.728508 93.022423,47.825571 103.444,47.612015 109.60037,48.267283 c 28.30679,3.012897 53.05366,18.761299 68.17127,43.382801 3.26292,5.314211 7.89898,15.500566 9.07604,19.941906 0.2001,0.75501 0.4346,1.48858 0.52112,1.63015 0.0865,0.14158 0.69618,-0.73568 1.35479,-1.94947 7.42324,-13.680556 19.43278,-23.893412 33.66915,-28.632072 14.74504,-4.907982 30.82707,-3.760567 44.6371,3.18475 17.78065,8.942201 29.81238,25.584562 32.51731,44.978062 0.61334,4.39736 0.61108,12.25161 -0.005,16.44057 -1.90252,12.94239 -7.61798,24.31735 -16.89389,33.62254 -8.59025,8.61733 -19.7519,14.4515 -31.74293,16.59193 -3.89836,0.69587 -12.43864,0.94576 -16.48345,0.48231 -19.29426,-2.21071 -36.32869,-13.85965 -45.57633,-31.16723 l -1.30623,-2.4447 -1.24259,3.62413 c -4.67348,13.63026 -12.13845,25.61565 -22.18087,35.61234 -4.80319,4.78131 -8.51225,7.81794 -14.10135,11.54482 -16.29536,10.86597 -35.97239,16.11524 -55.601203,14.83282 z m 10.852643,-35.09183 c 22.71758,-2.21739 41.28871,-16.94342 48.30198,-38.3012 1.88114,-5.72873 2.51013,-9.46587 2.68921,-15.97794 0.17024,-6.19086 -0.23414,-10.14973 -1.58913,-15.55767 -5.09862,-20.34913 -21.58926,-36.343715 -42.10408,-40.837553 -7.22733,-1.58317 -16.653642,-1.673349 -23.510241,-0.224921 -19.790841,4.180741 -35.581487,18.117694 -41.879145,36.962874 -3.981697,11.91488 -3.986751,24.02709 -0.01501,35.97758 6.297798,18.94931 22.268489,33.02901 42.033915,37.05695 5.648193,1.15102 10.646452,1.43149 16.072501,0.90188 z M -33.86082,162.23215 c 7.897518,-2.52244 13.373154,-7.82722 16.077322,-15.57566 0.979532,-2.80673 1.005202,-3.00805 0.989678,-7.76231 -0.01458,-4.46789 -0.08542,-5.08731 -0.837274,-7.32125 -2.421875,-7.19605 -8.031707,-13.02579 -14.859439,-15.44193 -6.146505,-2.17507 -12.695358,-1.8859 -18.557026,0.81941 -7.320203,3.37846 -12.250052,9.82981 -13.652219,17.86571 -2.199581,12.60592 5.60597,24.54967 18.120526,27.72733 3.28299,0.8336 9.619441,0.67851 12.718432,-0.3113 z m 282.32602,-0.26963 c 10.24062,-3.4918 16.46384,-12.21824 16.4707,-23.0958 0.008,-12.15056 -8.42167,-21.97605 -20.52899,-23.92917 -2.7933,-0.4506 -6.8573,-0.25667 -9.68636,0.46223 -4.68021,1.1893 -9.76674,4.43576 -12.77493,8.15353 -9.94367,12.28922 -5.619,30.99859 8.66215,37.47396 3.61387,1.63861 6.20034,2.11949 10.84123,2.01559 3.70755,-0.083 4.40721,-0.19072 7.0162,-1.08034 z"
     style="fill:#f2f2f2;fill-opacity:0;stroke-width:0.305052" /><path
     id="path46"
     d="M 94.413727,229.94294 C 76.116783,228.74753 58.685822,221.99343 44.080076,210.4398 40.0284,207.23479 32.767009,199.95631 29.461128,195.78646 22.368854,186.84067 16.468545,175.63418 13.386521,165.25588 l -0.475522,-1.60125 -1.48447,2.81043 c -7.8384627,14.8399 -21.715722,25.89462 -37.606123,29.95729 -4.668995,1.19372 -7.369905,1.55284 -12.867117,1.71085 -10.364254,0.29791 -19.079175,-1.58316 -27.998286,-6.04329 -5.84492,-2.92283 -10.035978,-5.8875 -14.796378,-10.46666 -5.302092,-5.10023 -9.09322,-10.28141 -12.292462,-16.79961 -12.914223,-26.31168 -4.370568,-58.28241 20.006096,-74.863654 6.812492,-4.633923 13.639346,-7.53769 21.506197,-9.147546 25.762407,-5.271971 51.5312561,7.111196 64.221263,30.8614 0.78163,1.46287 1.392238,2.30806 1.477235,2.04476 0.07969,-0.24685 0.515691,-1.61564 0.968898,-3.04176 1.158852,-3.64659 3.167134,-8.50958 5.118512,-12.394316 C 32.627609,71.480339 57.67547,53.207752 87.092469,48.728508 93.022423,47.825571 103.444,47.612015 109.60037,48.267283 c 28.30679,3.012897 53.05366,18.761299 68.17127,43.382801 3.26292,5.314211 7.89898,15.500566 9.07604,19.941906 0.2001,0.75501 0.4346,1.48858 0.52112,1.63015 0.0865,0.14158 0.69618,-0.73568 1.35479,-1.94947 7.42324,-13.680556 19.43278,-23.893412 33.66915,-28.632072 14.74504,-4.907982 30.82707,-3.760567 44.6371,3.18475 17.78065,8.942201 29.81238,25.584562 32.51731,44.978062 0.61334,4.39736 0.61108,12.25161 -0.005,16.44057 -1.90252,12.94239 -7.61798,24.31735 -16.89389,33.62254 -8.59025,8.61733 -19.7519,14.4515 -31.74293,16.59193 -3.89836,0.69587 -12.43864,0.94576 -16.48345,0.48231 -19.29426,-2.21071 -36.32869,-13.85965 -45.57633,-31.16723 l -1.30623,-2.4447 -1.24259,3.62413 c -4.67348,13.63026 -12.13845,25.61565 -22.18087,35.61234 -4.80319,4.78131 -8.51225,7.81794 -14.10135,11.54482 -16.29536,10.86597 -35.97239,16.11524 -55.601203,14.83282 z m 10.852643,-35.09183 c 22.71758,-2.21739 41.28871,-16.94342 48.30198,-38.3012 1.88114,-5.72873 2.51013,-9.46587 2.68921,-15.97794 0.17024,-6.19086 -0.23414,-10.14973 -1.58913,-15.55767 -5.09862,-20.34913 -21.58926,-36.343715 -42.10408,-40.837553 -7.22733,-1.58317 -16.653642,-1.673349 -23.510241,-0.224921 -19.790841,4.180741 -35.581487,18.117694 -41.879145,36.962874 -3.981697,11.91488 -3.986751,24.02709 -0.01501,35.97758 6.297798,18.94931 22.268489,33.02901 42.033915,37.05695 5.648193,1.15102 10.646452,1.43149 16.072501,0.90188 z M -33.86082,162.23215 c 7.897518,-2.52244 13.373154,-7.82722 16.077322,-15.57566 0.979532,-2.80673 1.005202,-3.00805 0.989678,-7.76231 -0.01458,-4.46789 -0.08542,-5.08731 -0.837274,-7.32125 -2.421875,-7.19605 -8.031707,-13.02579 -14.859439,-15.44193 -6.146505,-2.17507 -12.695358,-1.8859 -18.557026,0.81941 -7.320203,3.37846 -12.250052,9.82981 -13.652219,17.86571 -2.199581,12.60592 5.60597,24.54967 18.120526,27.72733 3.28299,0.8336 9.619441,0.67851 12.718432,-0.3113 z m 282.32602,-0.26963 c 10.24062,-3.4918 16.46384,-12.21824 16.4707,-23.0958 0.008,-12.15056 -8.42167,-21.97605 -20.52899,-23.92917 -2.7933,-0.4506 -6.8573,-0.25667 -9.68636,0.46223 -4.68021,1.1893 -9.76674,4.43576 -12.77493,8.15353 -9.94367,12.28922 -5.619,30.99859 8.66215,37.47396 3.61387,1.63861 6.20034,2.11949 10.84123,2.01559 3.70755,-0.083 4.40721,-0.19072 7.0162,-1.08034 z"
     style="fill:#f2f2f2;fill-opacity:0;stroke-width:0.305052" /><g
     transform="matrix(1.3333333,0,0,-1.3333333,-74.580355,279.0744)"
     id="g10"
     style="filter:url(#filter1010)"><g
       transform="scale(0.1)"
       id="g12"><path
         id="path14-1"
         style="fill:#e65c23;fill-opacity:1;fill-rule:evenodd;stroke:none"
         d="M 647.461,17.7695 C 698.281,10.7383 760.16,7.46094 833.121,7.96875 906.051,8.44141 985.738,15 1072.3,27.5391 c 87,12.1093 176.84,32.2617 269.42,60.3906 92.54,27.6913 184.1,65.4293 274.65,113.1993 91.09,47.781 176.79,107.703 257.34,179.609 L 1708.44,562.621 C 1660.12,501.719 1602.27,445.352 1534.88,393.551 1467.97,341.719 1395.78,295.199 1318.32,253.949 1240.86,212.73 1161.84,177.77 1081.37,149.059 1000.86,120.859 923.121,100 848.199,86.4492 773.238,72.3398 705.078,66.8398 643.711,69.8398 l 3.75,-52.0703 M 0,527.891 c 72.9688,58.359 135.352,123.519 187.191,195.429 51.289,71.91 94.059,146.129 128.278,222.621 33.711,75.969 60.582,149.679 80.703,221.049 20.156,71.45 34.957,135.59 44.566,192.42 9.532,56.92 15.551,102.19 18.09,135.82 3.012,33.75 4.262,50.82 3.793,51.37 l 794.569,23.4 c 23.63,-52.34 33.71,-113.2 30.15,-182.62 -3,-69.92 -16.56,-144.41 -40.74,-223.4 -24.14,-78.98 -55.82,-159.21 -95.08,-240.699 -39.22,-81.48 -83,-160.23 -131.29,-236.172 C 972.422,611.129 922.891,541.68 871.559,478.832 820.82,415.941 771.449,363.359 723.711,321.129 675.352,278.359 631.879,249.691 593.121,235.078 L 608.98,17.7695 32.5,387.539 0,527.891" /><path
         id="path16-0"
         style="fill:#faae17;fill-opacity:1;fill-rule:evenodd;stroke:none"
         d="m 641.41,96.9883 c 60.891,-0.9688 130.039,7.0317 207.5,24.1837 77.539,17.109 158.79,44.258 243.79,81.488 84.49,36.719 168.47,84.219 252.03,142.57 83.51,57.93 161.68,127.071 234.68,207.54 72.47,80 135.59,172.07 189.42,276.179 L 1576.41,1007.81 C 1538.12,893.629 1488.87,787.461 1428.48,689.379 1367.58,591.801 1296.91,504.73 1216.45,428.238 1135.98,351.801 1047.19,288.672 950.078,238.828 853.012,189.57 749.102,156.371 638.398,139.262 l 3.012,-42.2737" /><path
         id="path18-9"
         style="fill:#00b3e6;fill-opacity:1;fill-rule:evenodd;stroke:none"
         d="m 636.91,169.449 c 63.871,7.031 132.07,27.66 204.461,61.84 72.457,34.262 145.149,81.52 218.119,141.91 73.4,59.852 143.4,133.051 209.77,219.61 66.91,86.019 127.03,184.57 180.35,295.742 53.32,111.719 96.33,235.709 129.02,372.069 l -203.75,164.46 c 3.56,-62.89 -3.51,-132.03 -21.09,-207.5 -17.62,-75.98 -43.56,-154.46 -77.74,-235.471 -34.72,-80.468 -75.7,-160.16 -123,-239.14 C 1105.23,663.949 1053.2,589.488 996.84,519.57 940,450.121 880.859,388.75 819.488,335.469 758.121,282.66 696.02,241.602 633.16,212.422 l 3.75,-42.973" /><path
         id="path20-4"
         style="fill:#faae17;fill-opacity:1;fill-rule:evenodd;stroke:none"
         d="m 1576.41,1007.81 192.42,-178.861 c -12.11,-23.168 -24.69,-45.789 -37.74,-67.898 -98.63,-37.731 -203.75,-67.93 -315.47,-90.539 66.45,103.078 119.97,215.578 160.79,337.298" /><path
         id="path22-8"
         style="fill:#42c7f5;fill-opacity:1;fill-rule:evenodd;stroke:none"
         d="m 1313.01,652.379 c 57.34,81.492 108.71,173.051 153.98,274.691 45.74,101.09 83.01,212.27 111.64,333.55 l -204.49,164.46 c 3.01,-54.81 -2.03,-114.69 -15.12,-179.57 -12.54,-64.89 -32.18,-132.35 -58.82,-202.27 -26.65,-69.92 -58.87,-139.799 -96.61,-209.72 -37.22,-70.469 -78.71,-138.36 -124.53,-203.75 80,3.511 158.01,11.089 233.95,22.609" /><path
         id="path24-7"
         style="fill:#87c23f;fill-opacity:1;fill-rule:evenodd;stroke:none"
         d="m 463.359,1546.6 c 0,-0.55 -1.289,-16.64 -3.75,-48.28 -2.539,-31.21 -8.089,-73.75 -16.64,-127.58 -9.059,-53.83 -22.617,-114.41 -40.739,-181.79 -18.089,-67.93 -42.5,-138.64 -73.21,-212.071 C 298.359,903.441 259.609,831.211 212.809,760.27 324.02,717.539 443.52,684.57 571.25,661.41 c 127.77,-22.621 261.09,-34.18 399.922,-34.648 3.558,0 6.797,0 9.808,0 52.81,78.468 101.64,160.699 146.44,246.718 44.26,86.52 80.7,172.54 109.42,258.08 28.12,85.47 44.96,166.02 50.5,241.49 5.08,75.47 -4.76,141.05 -29.41,196.95 l -794.571,-23.4" /></g></g></svg>
